# xmcd CD database file
#
# Track frame offsets:
#	150
#	17307
#	40629
#	59159
#	82107
#	102659
#	123601
#	142029
#	162384
#	185084
#	202350
#	223408
#	246072
#	265660
#	289992
#
# Disc length: 4151 seconds
#
# Revision: 1
# Processed by: cddbd v1.5.1PL0 Copyright (c) Steve Scherf et al.
# Submitted via: CDex 1.51
#
DISCID=f610350f
DTITLE=Various Artist - 青春歌年鑑 90年代 総集編 Disc1
DYEAR=2004
DGENRE=JPop
TTITLE0=今すぐKiss Me - LINDBERG
TTITLE1=壊れかけのRadio - 徳永英明
TTITLE2=愛は勝つ - KAN
TTITLE3=どんなときも - 槇原敬之
TTITLE4=Choo Choo TRAIN - zoo
TTITLE5=君がいるだけで - 米米クラブ
TTITLE6=世界中の誰よりきっと - 中山美穂&WANDS
TTITLE7=クリスマルキャロルの頃には - 稲垣潤一
TTITLE8=接吻 - ORIGINAL LOVE
TTITLE9=TRUE LOVE - 藤井フミヤ
TTITLE10=For Dear - 黒夢
TTITLE11=survival dAnce -no no cry more- - TRF
TTITLE12=恋しさと せつなさと 心強さと - 篠原涼子 with t. komuro
TTITLE13=シングルベッド - シャ乱Q
TTITLE14=TOMORROW - 岡本真夜
EXTD=YEAR: 2004
EXTT0=
EXTT1=
EXTT2=
EXTT3=
EXTT4=
EXTT5=
EXTT6=
EXTT7=
EXTT8=
EXTT9=
EXTT10=
EXTT11=
EXTT12=
EXTT13=
EXTT14=
PLAYORDER=
